<svg id="Layer_1" data-name="Layer 1" xmlns="http://www.w3.org/2000/svg" xmlns:xlink="http://www.w3.org/1999/xlink" viewBox="0 0 126.96 97.79"><defs><style>.cls-1{fill:url(#linear-gradient);}.cls-2{fill:#00d700;}</style><linearGradient id="linear-gradient" x1="126.86" y1="48.88" x2="32.7" y2="87.11" gradientUnits="userSpaceOnUse"><stop offset="0" stop-color="#00530a"/><stop offset="0.45" stop-color="#009505"/><stop offset="0.82" stop-color="#00c501"/><stop offset="1" stop-color="#00d700"/></linearGradient></defs><title>Acc_GT_NAN_Dimensional_BLK_RGB_Technology</title><polygon class="cls-1" points="126.96 38.2 32.64 76.44 32.64 97.79 126.96 59.55 126.96 38.2"/><path d="M78.14,41.42h5.73C89.25,41.42,92,44,92,48.74v.15c0,4.79-2.82,7.54-8.11,7.54H78.14ZM83.7,52.77C86,52.77,87,51.62,87,49v-.17c0-2.75-1-3.76-3.34-3.76h-.77v7.7Z" transform="translate(-0.19 0.04)"/><path d="M4.91,41.42h6.15l4.71,15h-5L10,53.93H5.29l-.67,2.5H.19ZM6.19,50.7h3L7.68,45.26Z" transform="translate(-0.19 0.04)"/><path d="M17.32,41.42h6c4.32,0,6.17,1.93,6.17,5.14v.08c0,3.13-2.08,4.9-6,4.9H22.07v4.89H17.32Zm5.74,6.92c1.26,0,1.91-.56,1.91-1.68v-.08c0-1.15-.65-1.62-1.89-1.62h-1v3.38Z" transform="translate(-0.19 0.04)"/><path d="M31.27,41.42h6c4.33,0,6.18,1.93,6.18,5.14v.08c0,3.13-2.08,4.9-6,4.9H36v4.89H31.27ZM37,48.34c1.26,0,1.91-.56,1.91-1.68v-.08c0-1.15-.65-1.62-1.89-1.62H36v3.38Z" transform="translate(-0.19 0.04)"/><path d="M45.21,41.42H50V52.75h5.46v3.68H45.21Z" transform="translate(-0.19 0.04)"/><path d="M57.5,41.42h4.81v15H57.5Z" transform="translate(-0.19 0.04)"/><path d="M65.12,41.42H75.79v3.65H69.86v2.12h4.71v3.34H69.86v2.24h6.26v3.66h-11Z" transform="translate(-0.19 0.04)"/><path d="M1.36,58.42H6.7L11,66.35V58.42h4.18v15H10.58l-5-9v9H1.36Z" transform="translate(-0.19 0.04)"/><path d="M17.09,66v-.17c0-4.64,3.53-7.67,8-7.67s8.07,2.8,8.07,7.54v.17c0,4.68-3.22,7.81-8.15,7.81S17.09,70.57,17.09,66Zm11.13,0v-.17c0-2.54-1.22-3.93-3.11-3.93s-3,1.37-3,3.93V66c0,2.56,1.2,4,3.09,4S28.22,68.49,28.22,66Z" transform="translate(-0.19 0.04)"/><path d="M34,58.42h4.81l1.72,9,1.8-9h4.14l2,9.07,1.83-9.07H54.7l-3.48,15H46.41l-2.1-9-2.12,9H37.44Z" transform="translate(-0.19 0.04)"/><path d="M1.37,24.42H6.7L11,32.35V24.42h4.18v15H10.58l-5-9v9H1.37Z" transform="translate(-0.19 0.04)"/><path d="M17.81,24.42H28.47v3.65H22.55v2.12h4.71v3.34H22.55v2.24h6.26v3.66h-11Z" transform="translate(-0.19 0.04)"/><polygon class="cls-2" points="126.96 59.59 32.64 21.35 32.64 0 126.96 38.24 126.96 59.59"/><path d="M29.59,24.42H34.4l1.72,9,1.8-9h4.14l2,9.07,1.82-9.07h4.41l-3.48,15H42l-2.1-9-2.12,9H33.07Z" transform="translate(-0.19 0.04)"/></svg>