<svg id="Layer_1" data-name="Layer 1" xmlns="http://www.w3.org/2000/svg" xmlns:xlink="http://www.w3.org/1999/xlink" viewBox="0 0 368.98 285.33"><defs><style>.cls-1{fill:url(#Technology_Gradient);}.cls-2{fill:#00d700;}</style><linearGradient id="Technology_Gradient" x1="368.69" y1="142.7" x2="94.1" y2="254.2" gradientUnits="userSpaceOnUse"><stop offset="0" stop-color="#00530a"/><stop offset="1" stop-color="#00d700"/></linearGradient></defs><title>Acc_Dimensional_GT_Green_POS_LIN_RGB</title><polygon class="cls-1" points="368.99 111.53 93.91 223.06 93.91 285.32 368.99 173.8 368.99 111.53"/><path d="M690.26,387.17h7.58v18.06h8.68V411H690.26Z" transform="translate(-689.65 -305.15)"/><path d="M709.69,387.17h17V393h-9.42v3.38h7.48v5.3h-7.48v3.58h9.95V411H709.69Z" transform="translate(-689.65 -305.15)"/><path d="M736,387.17h9.78L753.29,411h-8l-1.1-4h-7.55l-1.07,4h-7Zm2,14.75h4.7l-2.33-8.64Z" transform="translate(-689.65 -305.15)"/><path d="M755.76,387.17h9.12q6.43,0,9.66,3t3.22,8.68v.23q0,5.74-3.27,8.86T764.88,411h-9.12Zm8.85,18.06a5.07,5.07,0,0,0,4-1.44,7,7,0,0,0,1.23-4.57V399c0-2.18-.43-3.72-1.28-4.62a5.33,5.33,0,0,0-4-1.36h-1.24v12.26Z" transform="translate(-689.65 -305.15)"/><path d="M780.93,387.17h7.65V411h-7.65Z" transform="translate(-689.65 -305.15)"/><path d="M793.05,387.17h8.48l6.78,12.62V387.17H815V411h-7.24l-8-14.29V411h-6.68Z" transform="translate(-689.65 -305.15)"/><path d="M830.75,411.47a15.36,15.36,0,0,1-5.48-.9,11,11,0,0,1-4-2.52,10.5,10.5,0,0,1-2.42-3.86,14.18,14.18,0,0,1-.82-4.94V399a12.48,12.48,0,0,1,1-5,11.28,11.28,0,0,1,2.67-3.85,11.76,11.76,0,0,1,4-2.47,14.21,14.21,0,0,1,5-.87,16.16,16.16,0,0,1,4.15.52,10.79,10.79,0,0,1,3.54,1.6,8.25,8.25,0,0,1,2.52,2.79,9.58,9.58,0,0,1,1.14,4.1h-7.48a3.43,3.43,0,0,0-1.14-2.28,4,4,0,0,0-2.7-.79,4.25,4.25,0,0,0-3.56,1.67,7.61,7.61,0,0,0-1.28,4.71v.26a11.65,11.65,0,0,0,.25,2.48,5.6,5.6,0,0,0,.82,2,4,4,0,0,0,1.53,1.36,5.35,5.35,0,0,0,2.44.5,6.63,6.63,0,0,0,1.92-.25,3.82,3.82,0,0,0,1.3-.69,2.87,2.87,0,0,0,.77-1,3.72,3.72,0,0,0,.32-1.14h-4.08v-5h11.45v3.07a11.64,11.64,0,0,1-.73,4.17,9.33,9.33,0,0,1-2.22,3.39,10.51,10.51,0,0,1-3.72,2.29A15.12,15.12,0,0,1,830.75,411.47Z" transform="translate(-689.65 -305.15)"/><path d="M689.85,418.69h15.29v47.74H689.85Z" transform="translate(-689.65 -305.15)"/><path d="M712.42,418.69h17l13.55,25.24V418.69h13.29v47.74H741.73l-16-28.57v28.57H712.42Z" transform="translate(-689.65 -305.15)"/><path d="M777.65,430.31h-12V418.69H805v11.62H792.87v36.12H777.65Z" transform="translate(-689.65 -305.15)"/><path d="M809,418.69h15.15v17.63h14V418.69H853.3v47.74H838.15V448.07h-14v18.36H809Z" transform="translate(-689.65 -305.15)"/><path d="M860.31,418.69h33.92v11.62H875.4v6.74h15v10.62h-15v7.15h19.9v11.61h-35Z" transform="translate(-689.65 -305.15)"/><path d="M689.65,473.41h17l13.55,25.24V473.41h13.29v47.74H719l-16-28.58v28.58H689.65Z" transform="translate(-689.65 -305.15)"/><path d="M740.53,473.41h33.92V485H755.62v6.74h15v10.62h-15v7.14h19.9v11.62h-35Z" transform="translate(-689.65 -305.15)"/><path d="M776.58,473.41h15.29l5.48,28.51,5.74-28.51h13.15l6.48,28.84,5.81-28.84h14l-11.08,47.74H816.18l-6.68-28.51-6.74,28.51H787.67Z" transform="translate(-689.65 -305.15)"/><polygon class="cls-2" points="368.99 173.8 93.91 62.27 93.91 0 368.99 111.53 368.99 173.8"/></svg>